<svg width="48" height="48" viewBox="0 0 48 48" fill="none" xmlns="http://www.w3.org/2000/svg">
<path d="M40.1311 20.3826V20.4858L29.1714 27.2784V13.5901L40.1311 20.3826Z" fill="#005F32"/>
<path d="M17.9597 20.5539V34.0053L7.03784 27.2381L17.8942 20.511L17.9597 20.5539Z" fill="#005F32"/>
<path d="M29.1714 0V13.5245L29.1185 13.5573L18.2067 6.79503L29.1714 0Z" fill="#00FF88"/>
<path d="M17.9597 6.94869V20.4707L17.8942 20.511L7 13.7614V13.7387L17.9597 6.94869Z" fill="#00FF88"/>
<path d="M29.1185 13.5573L17.9597 20.4707V6.94869L18.2067 6.79503L29.1185 13.5573Z" fill="#00FF88"/>
<path d="M17.8942 20.511L7.03782 27.2381L7 27.2154V13.7614L17.8942 20.511Z" fill="#00FF88"/>
<path d="M40.1311 20.4858V34.096L39.9723 34.1943L29.1714 27.5001V27.2784L40.1311 20.4858Z" fill="#00FF88"/>
<path d="M29.1185 40.9188L17.9597 47.8323V34.2245L18.1361 34.1162L29.1185 40.9188Z" fill="#00FF88"/>
<path d="M29.1714 27.2788V40.886L29.1185 40.9188L18.1361 34.1162L28.9925 27.3892L29.1714 27.2788Z" fill="#00FF88"/>
<path d="M39.9723 34.1943L29.1714 40.886L29.1714 27.5001L39.9723 34.1943Z" fill="#00FF88"/>
</svg>
