<svg width="137" height="100" viewBox="0 0 137 100" fill="none" xmlns="http://www.w3.org/2000/svg">
<path d="M13.0359 17.2128H12.5359V72.8753H13.0359V17.2128Z" fill="white"/>
<path d="M20.8786 58.7919L4.69312 49.447V22.4225L20.8786 31.7674V58.7919Z" fill="url(#paint0_linear_319_14962)"/>
<path d="M21.1286 59.2248L4.44312 49.5915V21.9895L21.1286 31.6228V59.2248ZM4.94295 49.3027L20.6285 58.3587V31.9115L4.94295 22.8555V49.3027Z" fill="white"/>
<path d="M36.1929 40.4647H35.6929V94.0097H36.1929V40.4647Z" fill="white"/>
<path d="M44.0355 90.1107L27.8499 80.7661V53.7414L44.0355 63.0862V90.1107Z" fill="url(#paint1_linear_319_14962)"/>
<path d="M44.2856 90.5437L27.6001 80.9104V53.3086L44.2856 62.9419V90.5437ZM28.1001 80.6217L43.7856 89.6777V63.2306L28.1001 54.1746V80.6217Z" fill="white"/>
<path d="M59.3501 17.8354H58.8501V89.8336H59.3501V17.8354Z" fill="white"/>
<path d="M67.1926 85.5315L51.0071 76.1868V49.1622L67.1926 58.507V85.5315Z" fill="url(#paint2_linear_319_14962)"/>
<path d="M67.4428 85.9644L50.7573 76.3311V48.7291L67.4428 58.3624V85.9644ZM51.2572 76.0423L66.9427 85.0983V58.6513L51.2572 49.5953V76.0423Z" fill="white"/>
<path d="M82.5071 13.6597H82.0071V95.8425H82.5071V13.6597Z" fill="white"/>
<path d="M90.3495 81.3555L74.1641 72.0106V17.8608L90.3495 27.2055V81.3555Z" fill="url(#paint3_linear_319_14962)"/>
<path d="M90.5998 81.7884L73.9143 72.1551V17.4276L90.5998 27.0609V81.7884ZM74.4143 71.8663L90.0998 80.9222V27.3498L74.4143 18.2937V71.8663Z" fill="white"/>
<path d="M105.664 10.0882H105.164V89.4477H105.664V10.0882Z" fill="white"/>
<path d="M113.507 77.9269L97.3213 68.5821V40.7091L113.507 50.0538V77.9269Z" fill="url(#paint4_linear_319_14962)"/>
<path d="M113.757 78.36L97.0713 68.7267V40.2762L113.757 49.9095V78.36ZM97.5713 68.4378L113.257 77.4938V50.1982L97.5713 41.1422V68.4378Z" fill="white"/>
<path d="M128.821 5.10559H128.321V96.4648H128.821V5.10559Z" fill="white"/>
<path d="M136.664 72.9443L120.479 63.5996V0.433289L136.664 9.77795V72.9443Z" fill="url(#paint5_linear_319_14962)"/>
<path d="M136.914 73.3773L120.229 63.744V0.00012207L136.914 9.63345V73.3773ZM120.728 63.4551L136.414 72.5111V9.92229L120.728 0.866292V63.4551Z" fill="white"/>
<path d="M9.29932 75.5803C9.16132 75.5803 9.04932 75.4684 9.04932 75.3303V19.6678C9.04932 19.5296 9.16132 19.4178 9.29932 19.4178C9.43732 19.4178 9.54932 19.5296 9.54932 19.6678V75.3303C9.54932 75.4684 9.43732 75.5803 9.29932 75.5803Z" fill="white"/>
<path d="M17.3918 61.2468L1.2063 51.9021V24.8774L17.3918 34.2223V61.2468Z" fill="#E2EFFA"/>
<path d="M17.392 61.4968C17.3489 61.4968 17.3057 61.4856 17.267 61.4633L1.08154 52.1186C1.00421 52.074 0.956543 51.9915 0.956543 51.9021V24.8776C0.956543 24.7883 1.00421 24.7058 1.08154 24.6611C1.15904 24.6165 1.25404 24.6165 1.33154 24.6611L17.517 34.0058C17.5944 34.0505 17.642 34.133 17.642 34.2223V61.2468C17.642 61.3361 17.5944 61.4186 17.517 61.4633C17.4782 61.4856 17.435 61.4968 17.392 61.4968ZM1.45638 51.7576L17.1419 60.8136V34.3665L1.45638 25.3105V51.7576Z" fill="white"/>
<path d="M32.4568 96.7146C32.3188 96.7146 32.2068 96.6028 32.2068 96.4646V42.9196C32.2068 42.7815 32.3188 42.6696 32.4568 42.6696C32.5948 42.6696 32.7068 42.7815 32.7068 42.9196V96.4646C32.7068 96.6026 32.595 96.7146 32.4568 96.7146Z" fill="white"/>
<path d="M40.5502 92.5658L24.3647 83.221V56.1965L40.5502 65.5412V92.5658Z" fill="#E2EFFA"/>
<path d="M40.5502 92.8158C40.5071 92.8158 40.4639 92.8046 40.4252 92.7823L24.2397 83.4376C24.1624 83.393 24.1147 83.3105 24.1147 83.2211V56.1966C24.1147 56.1073 24.1624 56.0248 24.2397 55.9801C24.3172 55.9353 24.4122 55.9353 24.4897 55.9801L40.6752 65.3248C40.7526 65.3695 40.8002 65.452 40.8002 65.5413V92.5658C40.8002 92.6551 40.7526 92.7376 40.6752 92.7823C40.6366 92.8046 40.5934 92.8158 40.5502 92.8158ZM24.6147 83.0766L40.3002 92.1326V65.6855L24.6147 56.6295V83.0766Z" fill="white"/>
<path d="M55.6143 92.5384C55.4763 92.5384 55.3643 92.4266 55.3643 92.2884V20.2901C55.3643 20.1519 55.4763 20.0401 55.6143 20.0401C55.7523 20.0401 55.8643 20.1519 55.8643 20.2901V92.2884C55.8643 92.4266 55.7523 92.5384 55.6143 92.5384Z" fill="white"/>
<path d="M63.7071 87.9863L47.5215 78.6416V51.6171L63.7071 60.9618V87.9863Z" fill="#E2EFFA"/>
<path d="M63.707 88.2363C63.6638 88.2363 63.6206 88.2251 63.582 88.2028L47.3965 78.8579C47.3192 78.8132 47.2715 78.7308 47.2715 78.6414V51.6169C47.2715 51.5276 47.3192 51.4451 47.3965 51.4004C47.474 51.3556 47.569 51.3556 47.6465 51.4004L63.832 60.7451C63.9093 60.7897 63.957 60.8723 63.957 60.9616V87.9861C63.957 88.0754 63.9093 88.1579 63.832 88.2026C63.7933 88.2252 63.7501 88.2363 63.707 88.2363ZM47.7715 78.4971L63.457 87.5532V61.1061L47.7715 52.0501V78.4971Z" fill="white"/>
<path d="M78.7705 98.5471C78.6325 98.5471 78.5205 98.4352 78.5205 98.2971V16.1142C78.5205 15.9761 78.6325 15.8642 78.7705 15.8642C78.9085 15.8642 79.0205 15.9761 79.0205 16.1142V98.2972C79.0205 98.4352 78.9085 98.5471 78.7705 98.5471Z" fill="white"/>
<path d="M86.8632 83.8102L70.6777 74.4655V20.3156L86.8632 29.6602V83.8102Z" fill="#E2EFFA"/>
<path d="M86.8632 84.0602C86.8201 84.0602 86.7769 84.0491 86.7382 84.0267L70.5527 74.6821C70.4754 74.6374 70.4277 74.5549 70.4277 74.4655V20.3156C70.4277 20.2262 70.4754 20.1437 70.5527 20.0991C70.6302 20.0544 70.7252 20.0544 70.8027 20.0991L86.9882 29.4437C87.0656 29.4884 87.1132 29.5709 87.1132 29.6602V83.8101C87.1132 83.8994 87.0656 83.9819 86.9882 84.0266C86.9494 84.0491 86.9064 84.0602 86.8632 84.0602ZM70.9277 74.3211L86.6132 83.377V29.8046L70.9277 20.7486V74.3211Z" fill="white"/>
<path d="M101.929 92.1526C101.791 92.1526 101.679 92.0408 101.679 91.9026V12.5433C101.679 12.4051 101.791 12.2933 101.929 12.2933C102.067 12.2933 102.179 12.4051 102.179 12.5433V91.9026C102.179 92.0408 102.067 92.1526 101.929 92.1526Z" fill="white"/>
<path d="M110.021 80.3819L93.8357 71.0372V43.1641L110.021 52.5087V80.3819Z" fill="#E2EFFA"/>
<path d="M110.021 80.6319C109.978 80.6319 109.935 80.6207 109.896 80.5984L93.7107 71.2537C93.6334 71.2091 93.5857 71.1266 93.5857 71.0373V43.1641C93.5857 43.0748 93.6334 42.9923 93.7107 42.9476C93.7882 42.9028 93.8832 42.9028 93.9607 42.9476L110.146 52.2923C110.224 52.3369 110.271 52.4194 110.271 52.5088V80.3819C110.271 80.4713 110.224 80.5537 110.146 80.5984C110.108 80.6207 110.064 80.6319 110.021 80.6319ZM94.0857 70.8927L109.771 79.9488V52.6531L94.0857 43.5971V70.8927Z" fill="white"/>
<path d="M125.085 99.1696C124.947 99.1696 124.835 99.0578 124.835 98.9196V7.56042C124.835 7.42226 124.947 7.31042 125.085 7.31042C125.223 7.31042 125.335 7.42226 125.335 7.56042V98.9196C125.335 99.0578 125.223 99.1696 125.085 99.1696Z" fill="white"/>
<path d="M133.177 75.3993L116.992 66.0545V2.88812L133.177 12.2328V75.3993Z" fill="#E2EFFA"/>
<path d="M133.178 75.6493C133.135 75.6493 133.091 75.6381 133.053 75.6158L116.867 66.2711C116.79 66.2265 116.742 66.144 116.742 66.0546V2.88813C116.742 2.79879 116.79 2.71629 116.867 2.67163C116.945 2.62679 117.04 2.62679 117.117 2.67163L133.303 12.0163C133.38 12.061 133.428 12.1435 133.428 12.2328V75.3991C133.428 75.4885 133.38 75.571 133.303 75.6156C133.264 75.6381 133.221 75.6493 133.178 75.6493ZM117.242 65.9101L132.928 74.9661V12.3773L117.242 3.32129V65.9101Z" fill="white"/>
<defs>
<linearGradient id="paint0_linear_319_14962" x1="158.48" y1="135.938" x2="-5.61757" y2="28.5653" gradientUnits="userSpaceOnUse">
<stop offset="0.0078" stop-color="#45B2FF"/>
<stop offset="0.6784" stop-color="#2BF9CD"/>
<stop offset="1" stop-color="#FFAEEC"/>
</linearGradient>
<linearGradient id="paint1_linear_319_14962" x1="151.073" y1="147.258" x2="-13.0247" y2="39.8856" gradientUnits="userSpaceOnUse">
<stop offset="0.0078" stop-color="#45B2FF"/>
<stop offset="0.6784" stop-color="#2BF9CD"/>
<stop offset="1" stop-color="#FFAEEC"/>
</linearGradient>
<linearGradient id="paint2_linear_319_14962" x1="160.113" y1="133.442" x2="-3.98427" y2="26.0694" gradientUnits="userSpaceOnUse">
<stop offset="0.0078" stop-color="#45B2FF"/>
<stop offset="0.6784" stop-color="#2BF9CD"/>
<stop offset="1" stop-color="#FFAEEC"/>
</linearGradient>
<linearGradient id="paint3_linear_319_14962" x1="175.182" y1="110.411" x2="11.0848" y2="3.03902" gradientUnits="userSpaceOnUse">
<stop offset="0.0078" stop-color="#45B2FF"/>
<stop offset="0.6784" stop-color="#2BF9CD"/>
<stop offset="1" stop-color="#FFAEEC"/>
</linearGradient>
<linearGradient id="paint4_linear_319_14962" x1="177.676" y1="106.6" x2="13.5782" y2="-0.77224" gradientUnits="userSpaceOnUse">
<stop offset="0.0078" stop-color="#45B2FF"/>
<stop offset="0.6784" stop-color="#2BF9CD"/>
<stop offset="1" stop-color="#FFAEEC"/>
</linearGradient>
<linearGradient id="paint5_linear_319_14962" x1="194.986" y1="80.1454" x2="30.8886" y2="-27.2267" gradientUnits="userSpaceOnUse">
<stop offset="0.0078" stop-color="#45B2FF"/>
<stop offset="0.6784" stop-color="#2BF9CD"/>
<stop offset="1" stop-color="#FFAEEC"/>
</linearGradient>
</defs>
</svg>
