<svg width="234" height="337" viewBox="0 0 234 337" fill="none" xmlns="http://www.w3.org/2000/svg">
<path d="M233.424 143.605V144.332L156.208 192.188V95.7482L233.424 143.605Z" fill="#005F32"/>
<path d="M77.2165 144.812V239.583L0.266846 191.905L76.7551 144.51L77.2165 144.812Z" fill="#005F32"/>
<path d="M156.208 0V95.2864L155.835 95.5171L78.956 47.8741L156.208 0Z" fill="#00FF88"/>
<path d="M77.2161 48.9567V144.226L76.7547 144.51L0 96.9551V96.7953L77.2161 48.9567Z" fill="#00FF88"/>
<path d="M155.835 95.5171L77.2161 144.226V48.9567L78.956 47.8741L155.835 95.5171Z" fill="#00FF88"/>
<path d="M76.7547 144.51L0.266481 191.905L0 191.745V96.9551L76.7547 144.51Z" fill="#00FF88"/>
<path d="M233.424 144.332V240.222L232.306 240.914L156.208 193.751V192.188L233.424 144.332Z" fill="#00FF88"/>
<path d="M155.835 288.291L77.2166 337V241.128L78.459 240.364L155.835 288.291Z" fill="#00FF88"/>
<path d="M156.208 192.192V288.061L155.835 288.291L78.459 240.364L154.948 192.969L156.208 192.192Z" fill="#00FF88"/>
<path d="M232.306 240.914L156.208 288.061L156.208 193.751L232.306 240.914Z" fill="#00FF88"/>
</svg>
